<mxfile host="app.diagrams.net" modified="2022-12-13T07:46:47.107Z" agent="5.0 (Windows NT 10.0; Win64; x64) AppleWebKit/537.36 (KHTML, like Gecko) Chrome/108.0.0.0 Safari/537.36" etag="c_LxFYFit4apIMkii3pg" version="20.5.3" type="github">
  <diagram id="UUC0fAXGH5V5j1937fmP" name="第 1 页">
    <mxGraphModel dx="1422" dy="754" grid="1" gridSize="10" guides="1" tooltips="1" connect="1" arrows="1" fold="1" page="1" pageScale="1" pageWidth="827" pageHeight="1169" math="0" shadow="0">
      <root>
        <mxCell id="0" />
        <mxCell id="1" parent="0" />
        <mxCell id="MVt_M8J9HRYvp3wHRAKe-8" value="&lt;span style=&quot;&quot;&gt;用户&lt;/span&gt;" style="shape=umlLifeline;perimeter=lifelinePerimeter;whiteSpace=wrap;html=1;container=1;collapsible=0;recursiveResize=0;outlineConnect=0;fillColor=#f5f5f5;fontColor=#333333;strokeColor=#666666;" vertex="1" parent="1">
          <mxGeometry x="360" y="240" width="100" height="300" as="geometry" />
        </mxCell>
        <mxCell id="MVt_M8J9HRYvp3wHRAKe-9" value="交互前端" style="shape=umlLifeline;perimeter=lifelinePerimeter;whiteSpace=wrap;html=1;container=1;collapsible=0;recursiveResize=0;outlineConnect=0;fillColor=#dae8fc;strokeColor=#6c8ebf;" vertex="1" parent="1">
          <mxGeometry x="510" y="240" width="100" height="300" as="geometry" />
        </mxCell>
        <mxCell id="MVt_M8J9HRYvp3wHRAKe-10" value="&lt;span style=&quot;&quot;&gt;后端&lt;/span&gt;" style="shape=umlLifeline;perimeter=lifelinePerimeter;whiteSpace=wrap;html=1;container=1;collapsible=0;recursiveResize=0;outlineConnect=0;fillColor=#dae8fc;strokeColor=#6c8ebf;" vertex="1" parent="1">
          <mxGeometry x="660" y="240" width="100" height="300" as="geometry" />
        </mxCell>
        <mxCell id="MVt_M8J9HRYvp3wHRAKe-14" value="输入问句" style="html=1;verticalAlign=bottom;endArrow=block;rounded=0;" edge="1" parent="MVt_M8J9HRYvp3wHRAKe-10" source="MVt_M8J9HRYvp3wHRAKe-9">
          <mxGeometry width="80" relative="1" as="geometry">
            <mxPoint x="-90" y="120" as="sourcePoint" />
            <mxPoint x="55.5" y="120" as="targetPoint" />
          </mxGeometry>
        </mxCell>
        <mxCell id="MVt_M8J9HRYvp3wHRAKe-11" value="模型层" style="shape=umlLifeline;perimeter=lifelinePerimeter;whiteSpace=wrap;html=1;container=1;collapsible=0;recursiveResize=0;outlineConnect=0;fillColor=#dae8fc;strokeColor=#6c8ebf;" vertex="1" parent="1">
          <mxGeometry x="810" y="240" width="100" height="300" as="geometry" />
        </mxCell>
        <mxCell id="MVt_M8J9HRYvp3wHRAKe-12" value="存储层" style="shape=umlLifeline;perimeter=lifelinePerimeter;whiteSpace=wrap;html=1;container=1;collapsible=0;recursiveResize=0;outlineConnect=0;fillColor=#e1d5e7;strokeColor=#9673a6;" vertex="1" parent="1">
          <mxGeometry x="960" y="240" width="100" height="300" as="geometry" />
        </mxCell>
        <mxCell id="MVt_M8J9HRYvp3wHRAKe-13" value="输入问句" style="html=1;verticalAlign=bottom;endArrow=block;rounded=0;" edge="1" parent="1" target="MVt_M8J9HRYvp3wHRAKe-9">
          <mxGeometry width="80" relative="1" as="geometry">
            <mxPoint x="414" y="340" as="sourcePoint" />
            <mxPoint x="494" y="340" as="targetPoint" />
          </mxGeometry>
        </mxCell>
      </root>
    </mxGraphModel>
  </diagram>
</mxfile>
